<svg width="32" height="32" viewBox="0 0 32 32" fill="none" xmlns="http://www.w3.org/2000/svg">
  <rect width="32" height="32" rx="8" fill="#1E3A8A"/>
  <path d="M16 8C19.866 8 23 11.134 23 15C23 18.866 19.866 22 16 22C12.134 22 9 18.866 9 15C9 11.134 12.134 8 16 8Z" fill="#60A5FA"/>
  <path d="M16 10C18.761 10 21 12.239 21 15C21 17.761 18.761 20 16 20C13.239 20 11 17.761 11 15C11 12.239 13.239 10 16 10Z" fill="#FFFFFF"/>
  <circle cx="16" cy="15" r="2" fill="#1E3A8A"/>
  <path d="M14 24H18V26H14V24Z" fill="#60A5FA"/>
  <path d="M12 26H20V28H12V26Z" fill="#60A5FA"/>
</svg>